<svg width="54" height="41" viewBox="0 0 54 41" fill="none" xmlns="http://www.w3.org/2000/svg">
<path d="M3.6354 40.1963H12.1182V19.5955L0 10.5068V36.5609C0 38.5725 1.6299 40.1963 3.6354 40.1963Z" fill="black"/>
<path d="M41.2012 40.1963H49.6839C51.6955 40.1963 53.3193 38.5664 53.3193 36.5609V10.5068L41.2012 19.5955" fill="black"/>
<path d="M41.2012 3.84208V19.5957L53.3193 10.507V5.65978C53.3193 1.16388 48.1873 -1.39912 44.5943 1.29718" fill="black"/>
<path d="M12.1172 19.5954V3.8418L26.659 14.7481L41.2008 3.8418V19.5954L26.659 30.5018" fill="black"/>
<path d="M0 5.65978V10.507L12.1182 19.5957V3.84208L8.7251 1.29718C5.126 -1.39912 0 1.16388 0 5.65978Z" fill="black"/>
</svg>
